<?xml version="1.0"?>
<svg xmlns="http://www.w3.org/2000/svg" height="512px" viewBox="0 0 496 496" width="512px" class=""><g><path d="m392 0h-320c-4.414062 0-8 3.585938-8 8v24h-24c-4.414062 0-8 3.585938-8 8v248h16v-240h240v56c0 4.414062 3.585938 8 8 8h56v368h-168v16h176c4.414062 0 8-3.585938 8-8v-24h24c4.414062 0 8-3.585938 8-8v-448c0-4.414062-3.585938-8-8-8zm-88 59.3125 36.6875 36.6875h-36.6875zm80 388.6875h-16v-344c0-2.207031-.894531-4.207031-2.34375-5.65625l-63.992188-63.992188c-1.457031-1.457031-3.457031-2.351562-5.664062-2.351562h-216v-16h304zm0 0" data-original="#000000" class="active-path" data-old_color="#000000" fill="#352649"/><path d="m189.65625 442.34375-8.359375-8.359375c3.144531-5.746094 5.605469-11.761719 7.375-17.984375h11.328125c4.414062 0 8-3.585938 8-8v-32c0-4.414062-3.585938-8-8-8h-11.34375c-1.769531-6.097656-4.265625-12.078125-7.464844-17.878906l8.464844-8.464844c3.128906-3.128906 3.128906-8.183594 0-11.3125l-24-24c-3.128906-3.128906-8.183594-3.128906-11.3125 0l-8.464844 8.464844c-5.800781-3.199219-11.78125-5.695313-17.878906-7.464844v-11.34375c0-4.414062-3.585938-8-8-8h-32c-4.414062 0-8 3.585938-8 8v11.328125c-6.214844 1.769531-12.230469 4.230469-17.984375 7.375l-8.359375-8.359375c-3.128906-3.128906-8.183594-3.128906-11.3125 0l-24 24c-3.128906 3.128906-3.128906 8.183594 0 11.3125l8.359375 8.359375c-3.144531 5.753906-5.605469 11.769531-7.375 17.984375h-11.328125c-4.414062 0-8 3.585938-8 8v32c0 4.414062 3.585938 8 8 8h11.34375c1.769531 6.097656 4.265625 12.078125 7.464844 17.878906l-8.464844 8.464844c-3.128906 3.128906-3.128906 8.183594 0 11.3125l24 24c3.128906 3.128906 8.183594 3.128906 11.3125 0l8.464844-8.464844c5.800781 3.199219 11.78125 5.695313 17.878906 7.464844v11.34375c0 4.414062 3.585938 8 8 8h32c4.414062 0 8-3.585938 8-8v-11.328125c6.214844-1.769531 12.230469-4.230469 17.984375-7.375l8.359375 8.359375c3.128906 3.128906 8.183594 3.128906 11.3125 0l24-24c3.128906-3.128906 3.128906-8.183594 0-11.3125zm-15.105469-35.9375c-1.75 8.648438-5.136719 16.890625-10.03125 24.496094-2.039062 3.167968-1.597656 7.328125 1.066407 9.992187l7.101562 7.105469-12.6875 12.6875-7.105469-7.101562c-2.664062-2.664063-6.824219-3.113282-9.992187-1.066407-7.605469 4.90625-15.847656 8.28125-24.496094 10.03125-3.726562.761719-6.40625 4.042969-6.40625 7.839844v9.609375h-16v-9.609375c0-3.804687-2.679688-7.078125-6.40625-7.839844-8.371094-1.695312-16.578125-5.109375-24.394531-10.152343-3.175781-2.039063-7.335938-1.589844-9.992188 1.074218l-7.207031 7.214844-12.6875-12.6875 7.207031-7.207031c2.664063-2.664063 3.113281-6.824219 1.074219-9.992188-5.035156-7.816406-8.449219-16.023437-10.152344-24.394531-.753906-3.726562-4.035156-6.40625-7.832031-6.40625h-9.609375v-16h9.609375c3.804687 0 7.078125-2.679688 7.839844-6.40625 1.75-8.648438 5.136719-16.890625 10.03125-24.496094 2.039062-3.167968 1.597656-7.328125-1.066407-9.992187l-7.101562-7.105469 12.6875-12.6875 7.105469 7.101562c2.65625 2.664063 6.824219 3.113282 9.992187 1.066407 7.605469-4.90625 15.847656-8.28125 24.496094-10.03125 3.726562-.761719 6.40625-4.042969 6.40625-7.839844v-9.609375h16v9.609375c0 3.804687 2.679688 7.078125 6.40625 7.839844 8.371094 1.695312 16.578125 5.109375 24.394531 10.152343 3.175781 2.039063 7.335938 1.589844 9.992188-1.074218l7.207031-7.214844 12.6875 12.6875-7.207031 7.207031c-2.664063 2.664063-3.113281 6.824219-1.074219 9.992188 5.035156 7.816406 8.449219 16.023437 10.152344 24.394531.753906 3.726562 4.035156 6.40625 7.832031 6.40625h9.609375v16h-9.609375c-3.796875 0-7.078125 2.679688-7.839844 6.40625zm0 0" data-original="#000000" class="active-path" data-old_color="#000000" fill="#352649"/><path d="m104 336c-30.878906 0-56 25.121094-56 56s25.121094 56 56 56 56-25.121094 56-56-25.121094-56-56-56zm0 96c-22.054688 0-40-17.945312-40-40s17.945312-40 40-40 40 17.945312 40 40-17.945312 40-40 40zm0 0" data-original="#000000" class="active-path" data-old_color="#000000" fill="#352649"/><path d="m64 64h144v16h-144zm0 0" data-original="#000000" class="active-path" data-old_color="#000000" fill="#352649"/><path d="m64 96h144v16h-144zm0 0" data-original="#000000" class="active-path" data-old_color="#000000" fill="#352649"/><path d="m64 128h144v16h-144zm0 0" data-original="#000000" class="active-path" data-old_color="#000000" fill="#352649"/><path d="m208 256h128v16h-128zm0 0" data-original="#000000" class="active-path" data-old_color="#000000" fill="#352649"/><path d="m208 288h128v16h-128zm0 0" data-original="#000000" class="active-path" data-old_color="#000000" fill="#352649"/><path d="m208 320h128v16h-128zm0 0" data-original="#000000" class="active-path" data-old_color="#000000" fill="#352649"/><path d="m64 160h272v16h-272zm0 0" data-original="#000000" class="active-path" data-old_color="#000000" fill="#352649"/><path d="m64 192h272v16h-272zm0 0" data-original="#000000" class="active-path" data-old_color="#000000" fill="#352649"/><path d="m64 224h272v16h-272zm0 0" data-original="#000000" class="active-path" data-old_color="#000000" fill="#352649"/><path d="m495.433594 165.023438-32-80c-1.226563-3.03125-4.160156-5.023438-7.433594-5.023438s-6.207031 1.992188-7.433594 5.023438l-32 80c-.375.953124-.566406 1.960937-.566406 2.976562v288c0 22.054688 17.945312 40 40 40s40-17.945312 40-40v-288c0-1.015625-.191406-2.023438-.566406-2.976562zm-39.433594-55.488282 20.183594 50.464844h-40.367188zm-24 290.464844v-192h16v192zm48 16v16h-48v-16zm-16-16v-192h16v192zm-32-208v-16h48v16zm24 288c-13.230469 0-24-10.769531-24-24v-8h48v8c0 13.230469-10.769531 24-24 24zm0 0" data-original="#000000" class="active-path" data-old_color="#000000" fill="#352649"/></g> </svg>
