<?xml version="1.0"?>
<svg xmlns="http://www.w3.org/2000/svg" xmlns:xlink="http://www.w3.org/1999/xlink" version="1.1" id="Capa_1" x="0px" y="0px" viewBox="0 0 512 512" style="enable-background:new 0 0 512 512;" xml:space="preserve" width="512px" height="512px" class=""><g><g>
	<g>
		<path d="M205.925,201.359c-15.225,0-27.611,12.385-27.611,27.611c0,15.225,12.386,27.611,27.611,27.611    c15.225,0,27.611-12.385,27.611-27.611C233.536,213.744,221.15,201.359,205.925,201.359z M205.925,236.537    c-4.172,0-7.567-3.394-7.567-7.567c0-4.172,3.394-7.567,7.567-7.567c4.172,0,7.567,3.395,7.567,7.567    S210.097,236.537,205.925,236.537z" data-original="#000000" class="active-path" data-old_color="#000000" fill="#352649"/>
	</g>
</g><g>
	<g>
		<path d="M413.837,319.467c-15.225,0-27.611,12.385-27.611,27.611c0,15.226,12.386,27.611,27.611,27.611    s27.611-12.385,27.611-27.611C441.447,331.853,429.061,319.467,413.837,319.467z M413.837,354.644    c-4.172,0-7.567-3.395-7.567-7.567s3.394-7.567,7.567-7.567c4.172,0,7.567,3.394,7.567,7.567S418.009,354.644,413.837,354.644z" data-original="#000000" class="active-path" data-old_color="#000000" fill="#352649"/>
	</g>
</g><g>
	<g>
		<path d="M418.253,127.081c-42.367-42.37-98.628-65.794-158.505-66.035c-0.065,0-0.13-0.003-0.195-0.002    c-0.246-0.001-0.49-0.009-0.736-0.009c-27.333,0-53.845,4.794-79.042,14.246C179.362,33.701,145.426,0,103.751,0    c-41.93,0-76.043,34.112-76.043,76.043c0,5.554,0.606,11.111,1.8,16.509c2.265,10.271,6.578,19.803,12.822,28.336l28.093,41.701    c-24.287,36.816-37.096,79.511-37.096,123.932c0,60.228,23.454,116.85,66.042,159.437c42.589,42.586,99.214,66.041,159.446,66.041    c0.221,0,0.442-0.007,0.663-0.008c0.076,0.002,0.151,0.009,0.228,0.009c0.001,0,0.003,0,0.004,0c0.001,0,0.001,0,0.002,0    c0.04,0,0.08-0.004,0.12-0.005c0.107-0.001,0.215-0.008,0.323-0.012c59.726-0.346,115.825-23.754,158.097-66.025    c42.587-42.587,66.041-99.209,66.041-159.435C484.294,226.295,460.84,169.671,418.253,127.081z M59.1,109.904    c-0.135-0.216-0.28-0.428-0.432-0.634c-4.679-6.333-7.904-13.412-9.587-21.042c-0.882-3.985-1.329-8.084-1.329-12.185    c0-30.878,25.121-55.998,55.999-55.998c30.877,0,55.998,25.12,55.998,55.998c0,12.073-3.774,23.562-10.915,33.227    c-0.151,0.204-0.294,0.414-0.428,0.627l-44.655,66.287l-12.704-18.858c-0.031-0.05-0.066-0.096-0.098-0.146L59.1,109.904z     M82.659,180.752l12.779,18.97c1.862,2.765,4.978,4.423,8.311,4.423c3.334,0,6.45-1.658,8.312-4.423l53.107-78.833    c5.083-6.948,8.88-14.585,11.334-22.653c13.112-5.744,26.656-10.049,40.538-12.912c-15.832,14.08-30.58,33.055-42.927,55.677    c-21.78,39.906-34.41,87.664-35.966,135.498H53.622C55.252,242.46,65.172,209.778,82.659,180.752z M53.621,296.543h84.522    c1.535,48.59,14.171,96.752,35.976,136.627c12.054,22.044,26.414,40.516,41.852,54.278    C126.349,468.36,58.164,390.663,53.621,296.543z M158.195,296.543h90.595v189.978C204.352,462.28,161.195,387.009,158.195,296.543    z M248.79,276.499H158.2c3.039-89.219,46.15-164.508,90.59-189.665V276.499z M268.834,85.569    c13.307,6.821,26.562,18.245,38.897,33.657c16.821,21.017,30.679,47.953,40.076,77.894c1.344,4.282,5.297,7.024,9.559,7.024    c0.994,0,2.005-0.149,3.005-0.463c5.281-1.657,8.218-7.282,6.56-12.563c-13.808-43.999-36.639-81.274-62.978-105.031    c88.485,19.917,155.543,97.091,160.049,190.411H381.32c-0.183-6.752-0.606-12.428-1.417-19.975    c-0.591-5.503-5.533-9.485-11.036-8.893c-5.503,0.591-9.485,5.533-8.894,11.035c0.733,6.817,1.117,11.869,1.294,17.832h-92.433    V85.569z M268.834,487.195V296.543h92.385C358.14,386.962,313.901,463.074,268.834,487.195z M303.003,487.155    c15.595-14.022,30.118-32.79,42.301-55.115c21.78-39.906,34.41-87.664,35.966-135.498h82.731    C459.482,390.192,391.958,467.579,303.003,487.155z" data-original="#000000" class="active-path" data-old_color="#000000" fill="#352649"/>
	</g>
</g><g>
	<g>
		<path d="M364.704,214.816h-0.175c-5.535,0-10.022,4.488-10.022,10.022c0,5.534,4.487,10.022,10.022,10.022h0.175    c5.535,0,10.022-4.488,10.022-10.022C374.726,219.304,370.239,214.816,364.704,214.816z" data-original="#000000" class="active-path" data-old_color="#000000" fill="#352649"/>
	</g>
</g><g>
	<g>
		<path d="M103.7,40.003c-19.328,0-35.05,15.724-35.05,35.05c0,19.327,15.723,35.05,35.05,35.05s35.05-15.724,35.05-35.05    C138.75,55.727,123.027,40.003,103.7,40.003z M103.7,90.059c-8.274,0-15.006-6.731-15.006-15.005s6.732-15.006,15.006-15.006    s15.006,6.732,15.006,15.006S111.974,90.059,103.7,90.059z" data-original="#000000" class="active-path" data-old_color="#000000" fill="#352649"/>
	</g>
</g></g> </svg>
